<svg width="99" height="53" viewBox="0 0 99 53" fill="none" xmlns="http://www.w3.org/2000/svg">
<path d="M98.9139 0H0V35.9252H98.896L98.9139 0Z" fill="url(#paint0_linear_1000_3831)"/>
<path d="M31.9164 45.2118C39.0849 45.2118 44.8962 39.3542 44.8962 32.1284C44.8962 24.9026 39.0849 19.045 31.9164 19.045C24.7478 19.045 18.9365 24.9026 18.9365 32.1284C18.9365 39.3542 24.7478 45.2118 31.9164 45.2118Z" fill="url(#paint1_linear_1000_3831)"/>
<path d="M56.209 52.6538C63.1145 52.6538 68.7125 47.0111 68.7125 40.0505C68.7125 33.0899 63.1145 27.4472 56.209 27.4472C49.3035 27.4472 43.7054 33.0899 43.7054 40.0505C43.7054 47.0111 49.3035 52.6538 56.209 52.6538Z" fill="#F7F7F7"/>
<path d="M6.9093 26.4133C9.38101 26.3341 11.8205 26.9956 13.9193 28.314C16.018 29.6323 17.6818 31.5484 18.7002 33.8199C19.7186 36.0914 20.0459 38.6163 19.6407 41.0753C19.2355 43.5344 18.116 45.817 16.4237 47.6347C14.7315 49.4523 12.5425 50.7234 10.1336 51.2871C7.72471 51.8507 5.20407 51.6817 2.89046 50.8014C0.576853 49.9211 0.0231712 49.3629 0.0231712 49.3629C0.0231712 43.0555 0.101684 40.6106 0.0231712 38.1192C-0.0289594 36.4649 0.0231633 33.8685 0.0231633 32.0859C0.0231633 30.3034 0.0231518 30.3034 0.0231518 28.314C0.0231518 28.314 0.660731 28.2069 2.15702 27.5253C3.65331 26.8437 5.26814 26.4658 6.9093 26.4133Z" fill="#F7F7F7"/>
<path d="M98.7579 27.0065C99.0513 40.7244 99.109 52.6538 98.7579 52.6538C82.2837 52.6538 65.543 45.7978 67.3642 27.0065C68.638 13.8644 80.8054 4.38782 97.2796 4.38782C97.2796 4.38782 98.7579 13.3385 98.7579 27.0065Z" fill="url(#paint2_linear_1000_3831)"/>
<defs>
<linearGradient id="paint0_linear_1000_3831" x1="49.4702" y1="0" x2="49.4702" y2="35.9252" gradientUnits="userSpaceOnUse">
<stop stop-color="#354B9F"/>
<stop offset="0.48" stop-color="#25346E"/>
<stop offset="0.4801" stop-color="#25346E"/>
<stop offset="0.73" stop-color="#25346E"/>
<stop offset="1" stop-color="#131B39"/>
</linearGradient>
<linearGradient id="paint1_linear_1000_3831" x1="31.9164" y1="19.045" x2="31.9164" y2="45.2118" gradientUnits="userSpaceOnUse">
<stop offset="0.02" stop-color="#283979"/>
<stop offset="0.2" stop-color="#2B3D81"/>
<stop offset="0.701" stop-color="#253570"/>
<stop offset="1" stop-color="#090D1B"/>
</linearGradient>
<linearGradient id="paint2_linear_1000_3831" x1="96.1242" y1="0.00492353" x2="96.1242" y2="51.9508" gradientUnits="userSpaceOnUse">
<stop offset="0.0209998" stop-color="#354B9F"/>
<stop offset="0.106" stop-color="#2F438E"/>
<stop offset="0.696" stop-color="#1B2752"/>
<stop offset="1" stop-color="#131B39"/>
</linearGradient>
</defs>
</svg>
